<?xml version="1.0" encoding="UTF-8"?>
<svg xmlns="http://www.w3.org/2000/svg" xmlns:xlink="http://www.w3.org/1999/xlink" width="29pt" height="29pt" viewBox="0 0 29 29" version="1.1">
<path fill="#3B4256" d="M 28.546875 14.5 C 28.546875 6.742188 22.257812 0.453125 14.5 0.453125 C 6.742188 0.453125 0.453125 6.742188 0.453125 14.5 C 0.453125 21.511719 5.589844 27.324219 12.304688 28.375 L 12.304688 18.5625 L 8.738281 18.5625 L 8.738281 14.5 L 12.304688 14.5 L 12.304688 11.40625 C 12.304688 7.886719 14.402344 5.941406 17.609375 5.941406 C 19.148438 5.941406 20.753906 6.214844 20.753906 6.214844 L 20.753906 9.667969 L 18.984375 9.667969 C 17.238281 9.667969 16.695312 10.753906 16.695312 11.863281 L 16.695312 14.5 L 20.589844 14.5 L 19.96875 18.5625 L 16.695312 18.5625 L 16.695312 28.375 C 23.410156 27.324219 28.546875 21.511719 28.546875 14.5 Z M 28.546875 14.5 "/>
</svg>
