<?xml version="1.0" encoding="UTF-8"?>
<svg xmlns="http://www.w3.org/2000/svg" xmlns:xlink="http://www.w3.org/1999/xlink" width="4pt" height="10pt" viewBox="0 0 4 10" version="1.1">
<g id="surface1">
<path fill="#3B4256" d="M 0.417969 8.285156 L 0.832031 8.285156 L 0.832031 5.464844 L 0.417969 5.464844 C 0.1875 5.464844 0 5.289062 0 5.074219 L 0 4.140625 C 0 3.925781 0.1875 3.75 0.417969 3.75 L 2.75 3.75 C 2.980469 3.75 3.167969 3.925781 3.167969 4.140625 L 3.167969 8.285156 L 3.582031 8.285156 C 3.8125 8.285156 4 8.460938 4 8.675781 L 4 9.609375 C 4 9.824219 3.8125 10 3.582031 10 L 0.417969 10 C 0.1875 10 0 9.824219 0 9.609375 L 0 8.675781 C 0 8.460938 0.1875 8.285156 0.417969 8.285156 Z M 2 0 C 1.171875 0 0.5 0.628906 0.5 1.40625 C 0.5 2.183594 1.171875 2.8125 2 2.8125 C 2.828125 2.8125 3.5 2.183594 3.5 1.40625 C 3.5 0.628906 2.828125 0 2 0 Z M 2 0 "/>
</g>
</svg>
