<?xml version="1.0" encoding="UTF-8"?>
<svg xmlns="http://www.w3.org/2000/svg" xmlns:xlink="http://www.w3.org/1999/xlink" width="240pt" height="40pt" viewBox="0 0 240 40" version="1.1">
<g id="surface1">
<path style=" stroke:none;fill-rule:nonzero;fill:rgb(5.882353%,29.019608%,34.901961%);fill-opacity:1;" d="M 229.023438 21.375 Z M 114.664062 16.488281 Z M 229.023438 21.375 Z M 143.9375 37.863281 C 144.550781 37.863281 145.160156 37.863281 145.769531 37.558594 C 146.683594 37.25 147.292969 36.945312 147.902344 36.335938 C 148.511719 36.03125 149.125 35.417969 149.734375 34.808594 C 150.34375 34.199219 150.953125 33.28125 151.5625 32.671875 C 152.171875 31.753906 152.78125 31.144531 153.394531 30.230469 C 153.699219 29.3125 154.308594 28.703125 154.613281 27.785156 C 154.917969 26.871094 155.222656 25.953125 155.527344 25.039062 C 155.832031 24.425781 155.832031 23.511719 156.136719 22.902344 C 156.136719 21.984375 156.136719 21.375 156.136719 20.761719 C 156.136719 20.152344 156.136719 19.542969 156.136719 19.238281 C 155.832031 18.625 155.527344 18.320312 155.222656 18.015625 C 154.917969 17.710938 154.613281 17.710938 154.003906 17.710938 C 153.394531 17.710938 152.78125 17.710938 152.171875 18.015625 C 151.5625 18.320312 150.953125 18.929688 150.34375 19.542969 C 149.734375 20.152344 149.125 20.761719 148.511719 21.375 C 147.902344 21.984375 147.292969 22.902344 146.683594 23.511719 C 146.378906 23.816406 146.074219 24.121094 146.074219 24.425781 C 146.074219 24.425781 145.769531 24.734375 145.464844 25.039062 C 144.855469 26.257812 144.242188 27.175781 143.632812 28.398438 C 143.328125 29.007812 143.023438 29.3125 143.023438 29.617188 C 142.71875 29.921875 142.71875 30.230469 142.414062 30.535156 C 142.109375 31.144531 142.109375 31.753906 142.109375 32.0625 C 141.804688 33.28125 141.804688 33.894531 141.804688 34.808594 C 141.804688 34.808594 141.804688 34.808594 141.804688 35.113281 C 141.804688 35.726562 142.109375 36.03125 142.109375 36.640625 C 142.414062 36.945312 142.71875 37.25 143.023438 37.558594 C 143.328125 37.863281 143.632812 37.863281 143.9375 37.863281 Z M 7.625 31.144531 C 5.488281 37.25 4.878906 37.863281 2.132812 38.167969 L 0.304688 38.472656 C 0 38.777344 0 39.695312 0.304688 40 C 2.746094 39.695312 4.878906 39.695312 7.015625 39.695312 C 9.757812 39.695312 12.503906 39.695312 15.859375 40 C 16.164062 39.695312 16.46875 38.777344 16.164062 38.472656 L 13.722656 38.167969 C 10.671875 38.167969 10.976562 36.640625 12.503906 31.144531 L 15.246094 22.59375 C 15.859375 21.070312 15.859375 21.070312 17.078125 21.070312 L 21.652344 21.070312 C 26.53125 21.070312 27.75 21.679688 27.75 23.511719 L 27.75 25.953125 C 28.054688 26.257812 28.972656 26.257812 29.277344 25.953125 C 29.582031 24.425781 30.191406 21.984375 30.800781 19.847656 C 31.410156 17.710938 32.324219 15.265625 32.933594 14.046875 C 32.628906 13.742188 31.410156 13.742188 31.105469 14.046875 L 30.191406 15.878906 C 28.972656 18.320312 27.75 18.929688 21.957031 18.929688 L 17.992188 18.929688 C 16.773438 18.929688 16.46875 18.625 17.078125 17.40625 L 21.042969 4.273438 C 21.652344 2.441406 21.652344 2.136719 23.480469 2.136719 L 26.53125 2.136719 C 29.886719 2.136719 31.714844 2.441406 32.933594 2.75 C 35.679688 3.359375 35.375 4.886719 35.070312 7.9375 C 35.375 8.550781 36.289062 8.550781 36.59375 7.9375 C 37.203125 6.105469 38.425781 2.136719 38.730469 0.609375 L 38.425781 0 C 36.59375 0.304688 33.851562 0.304688 30.496094 0.304688 L 18.90625 0.304688 C 17.6875 0.304688 16.46875 0.304688 15.550781 0.304688 C 14.332031 0.304688 13.417969 0.304688 12.503906 0 C 11.894531 0.304688 11.589844 1.222656 12.199219 1.527344 L 13.113281 1.832031 C 16.46875 2.441406 16.164062 3.359375 14.636719 8.855469 Z M 42.082031 1.222656 L 43.914062 1.222656 C 46.046875 1.222656 48.183594 0.917969 50.316406 0 L 50.925781 0.304688 L 40.863281 32.367188 C 40.558594 32.976562 40.253906 33.894531 40.253906 34.503906 C 39.949219 35.417969 39.949219 36.03125 40.253906 36.640625 C 40.558594 36.945312 41.167969 37.25 41.777344 37.25 C 42.695312 37.25 43.304688 36.945312 44.21875 36.640625 C 44.828125 36.640625 45.4375 36.335938 46.046875 35.726562 C 46.351562 35.726562 46.65625 35.726562 46.65625 35.417969 C 46.964844 35.417969 46.964844 35.113281 47.269531 35.113281 C 48.183594 34.503906 48.792969 33.894531 49.402344 32.976562 L 49.707031 32.976562 C 50.011719 32.976562 50.011719 32.976562 50.316406 32.976562 C 50.316406 32.976562 50.316406 32.976562 50.621094 32.976562 C 50.621094 33.28125 50.621094 33.28125 50.925781 33.585938 L 50.621094 33.894531 C 50.621094 33.894531 50.621094 33.894531 50.621094 34.199219 C 50.316406 34.199219 50.316406 34.199219 50.316406 34.503906 C 49.707031 34.808594 49.402344 35.417969 48.792969 35.726562 L 48.792969 36.03125 C 48.488281 36.03125 48.488281 36.03125 48.183594 36.03125 C 48.183594 36.335938 48.183594 36.335938 47.878906 36.335938 C 47.269531 36.945312 46.65625 37.558594 46.046875 37.863281 C 45.4375 38.167969 44.828125 38.472656 44.523438 38.777344 C 43.914062 38.777344 43.304688 39.082031 42.695312 39.390625 C 42.695312 39.390625 42.390625 39.390625 42.390625 39.390625 C 41.167969 39.695312 39.949219 40 39.035156 39.695312 C 38.121094 39.695312 37.507812 39.390625 36.898438 38.777344 C 35.984375 38.167969 35.679688 37.25 35.679688 36.03125 C 35.679688 35.113281 35.984375 33.894531 36.59375 32.0625 L 45.132812 4.886719 L 45.132812 4.273438 C 45.132812 3.96875 45.132812 3.96875 45.132812 3.96875 C 45.132812 3.054688 44.523438 2.75 43.304688 2.75 L 41.472656 2.75 Z M 103.378906 36.945312 C 103.683594 36.945312 103.683594 36.945312 103.988281 36.945312 C 104.292969 36.640625 104.601562 36.640625 104.90625 36.640625 C 105.515625 36.335938 106.125 36.03125 107.039062 35.113281 C 107.953125 34.503906 108.5625 33.585938 109.480469 32.671875 C 110.394531 31.449219 111.308594 30.535156 111.917969 29.3125 C 112.222656 29.007812 112.222656 29.007812 112.222656 28.703125 C 112.527344 28.703125 112.527344 28.398438 112.527344 28.398438 C 113.136719 27.480469 113.445312 26.566406 113.75 25.953125 C 114.054688 25.648438 114.054688 25.648438 114.054688 25.34375 C 114.054688 25.34375 114.359375 25.039062 114.359375 25.039062 C 114.664062 24.121094 114.664062 23.511719 114.96875 22.902344 C 114.96875 21.984375 114.96875 21.070312 114.96875 20.457031 C 114.96875 20.152344 114.96875 20.152344 114.96875 19.847656 C 114.664062 19.542969 114.664062 19.238281 114.359375 18.929688 C 114.054688 18.625 113.75 18.320312 113.136719 18.015625 C 112.832031 17.710938 112.527344 17.710938 112.222656 17.710938 C 111.613281 17.710938 111.003906 17.710938 110.699219 18.015625 C 110.394531 18.015625 110.394531 18.015625 110.394531 18.015625 C 109.785156 18.320312 109.480469 18.625 108.867188 18.929688 C 108.257812 19.238281 107.953125 19.847656 107.34375 20.152344 C 106.734375 20.761719 106.125 21.375 105.515625 21.984375 C 105.515625 22.289062 105.210938 22.59375 105.210938 22.59375 C 105.210938 22.902344 104.90625 22.902344 104.90625 23.207031 C 103.988281 24.425781 103.378906 25.34375 102.769531 26.871094 C 102.464844 27.785156 102.160156 28.703125 101.855469 29.617188 C 101.550781 30.535156 101.246094 31.449219 100.941406 32.367188 C 100.941406 33.28125 100.941406 34.199219 100.941406 34.808594 C 100.941406 35.417969 101.246094 35.726562 101.550781 36.03125 C 101.855469 36.335938 102.160156 36.640625 102.464844 36.640625 C 102.769531 36.945312 103.074219 36.945312 103.378906 36.945312 Z M 118.324219 35.417969 C 118.933594 35.417969 119.238281 35.726562 119.238281 36.335938 C 119.238281 36.640625 118.933594 36.945312 118.628906 37.25 C 118.628906 37.558594 118.324219 37.863281 118.019531 38.167969 C 117.710938 38.472656 117.101562 39.082031 116.492188 39.390625 C 116.492188 39.390625 116.1875 39.695312 115.882812 39.695312 C 115.578125 39.695312 115.273438 39.695312 114.664062 39.695312 C 113.445312 39.695312 112.527344 39.390625 112.222656 38.472656 C 112.222656 38.472656 112.222656 38.167969 112.222656 38.167969 C 112.222656 38.167969 112.222656 37.863281 112.222656 37.863281 C 111.917969 37.25 111.917969 36.640625 112.222656 36.03125 C 112.222656 35.726562 112.222656 35.417969 112.222656 35.113281 C 112.527344 34.503906 112.527344 34.199219 112.832031 33.585938 L 113.136719 32.976562 L 113.136719 32.367188 C 113.445312 31.449219 113.75 30.535156 114.359375 29.3125 C 114.664062 28.703125 114.96875 27.785156 114.96875 27.175781 C 115.273438 26.566406 115.578125 25.953125 115.882812 25.039062 C 115.273438 25.953125 114.96875 26.871094 114.359375 27.785156 C 113.75 29.007812 113.136719 30.230469 112.222656 31.449219 C 111.613281 32.671875 110.699219 33.585938 109.785156 34.808594 C 109.480469 34.808594 109.175781 35.113281 109.175781 35.417969 C 108.867188 35.417969 108.867188 35.726562 108.5625 35.726562 C 107.648438 36.640625 106.734375 37.558594 105.820312 38.167969 C 105.210938 38.472656 104.90625 38.777344 104.601562 39.082031 C 104.292969 39.082031 103.683594 39.390625 103.378906 39.390625 C 102.464844 39.695312 101.855469 39.695312 100.941406 39.695312 C 100.027344 39.695312 99.109375 39.695312 98.5 39.390625 C 97.890625 38.777344 97.28125 38.472656 96.671875 37.558594 C 96.0625 36.945312 95.757812 36.03125 95.757812 35.113281 C 95.449219 34.199219 95.449219 32.976562 95.757812 31.753906 C 96.0625 30.839844 96.0625 30.230469 96.367188 29.3125 C 96.671875 28.398438 96.976562 27.480469 97.585938 26.566406 C 97.890625 25.648438 98.5 24.734375 98.804688 24.121094 C 99.414062 23.207031 100.027344 22.289062 100.941406 21.375 C 100.941406 21.375 101.246094 21.070312 101.550781 20.761719 C 101.550781 20.761719 101.855469 20.457031 102.160156 20.152344 C 103.074219 19.238281 104.292969 18.320312 105.515625 17.40625 C 106.429688 16.792969 107.648438 16.488281 108.5625 16.183594 C 109.785156 15.878906 110.699219 15.878906 111.917969 15.878906 C 112.527344 15.878906 112.832031 15.878906 113.445312 15.878906 C 114.054688 16.183594 114.359375 16.183594 114.664062 16.488281 C 114.96875 16.488281 114.96875 16.792969 114.96875 16.792969 C 115.578125 17.097656 115.882812 17.40625 115.882812 18.015625 C 116.1875 18.320312 116.1875 18.625 116.492188 18.929688 C 116.492188 19.238281 116.492188 19.542969 116.492188 19.847656 L 116.492188 20.152344 C 116.492188 20.761719 116.492188 21.070312 116.492188 21.375 L 117.101562 19.542969 C 117.40625 18.929688 117.710938 18.320312 117.710938 18.015625 C 118.019531 17.40625 118.324219 16.792969 118.324219 16.488281 C 118.628906 16.183594 119.238281 16.183594 120.761719 16.183594 C 122.289062 16.183594 122.898438 16.183594 122.898438 16.488281 C 122.898438 16.792969 122.59375 17.40625 122.59375 17.710938 C 122.289062 18.015625 121.980469 18.625 121.980469 19.238281 L 121.675781 19.542969 L 121.675781 19.847656 C 121.371094 20.761719 121.066406 21.375 120.761719 22.59375 C 120.761719 22.59375 120.761719 22.902344 120.457031 22.902344 L 120.457031 23.511719 C 120.152344 24.734375 119.542969 25.648438 119.238281 26.871094 C 118.933594 28.089844 118.628906 29.007812 118.324219 29.921875 C 118.019531 30.839844 117.710938 31.753906 117.40625 32.367188 C 117.101562 33.28125 116.796875 33.894531 116.796875 34.503906 C 116.492188 35.113281 116.492188 35.417969 116.492188 35.726562 C 116.1875 36.640625 116.492188 36.945312 116.796875 36.945312 C 116.796875 36.945312 117.101562 36.945312 117.101562 36.640625 C 117.40625 36.640625 117.40625 36.640625 117.40625 36.640625 C 117.710938 36.335938 117.710938 36.03125 118.019531 35.726562 L 118.019531 35.417969 Z M 79.289062 20.152344 C 79.59375 20.152344 79.59375 19.847656 79.59375 19.847656 C 79.59375 19.542969 79.898438 19.542969 79.898438 19.238281 C 80.507812 18.320312 80.8125 17.710938 81.726562 17.097656 C 82.03125 16.792969 82.644531 16.183594 82.949219 16.183594 C 83.558594 15.878906 84.167969 15.878906 84.777344 15.878906 C 85.082031 15.878906 85.691406 15.878906 85.996094 15.878906 C 85.996094 16.183594 85.996094 16.183594 85.996094 16.183594 C 86.300781 16.183594 86.605469 16.488281 86.914062 16.792969 C 86.914062 17.097656 87.21875 17.40625 87.21875 17.710938 C 87.21875 18.320312 87.21875 18.625 87.21875 19.238281 C 87.21875 19.542969 87.21875 19.847656 87.21875 20.152344 C 86.914062 20.457031 86.914062 20.761719 86.605469 21.375 C 86.605469 21.984375 86.300781 22.289062 86.300781 22.902344 C 85.996094 23.511719 85.996094 24.121094 85.691406 24.734375 L 85.386719 25.34375 L 85.386719 25.953125 C 85.082031 26.871094 84.472656 27.785156 84.167969 29.007812 C 84.167969 29.617188 83.863281 30.230469 83.558594 30.839844 C 84.167969 29.617188 85.082031 28.089844 85.691406 26.871094 C 85.996094 26.566406 85.996094 26.257812 86.300781 25.953125 C 86.300781 25.648438 86.605469 25.34375 86.914062 25.039062 C 87.523438 23.816406 88.4375 22.59375 89.351562 21.375 C 90.570312 19.542969 91.488281 18.320312 92.707031 17.40625 C 92.707031 17.097656 93.011719 17.097656 93.011719 17.097656 C 93.316406 16.792969 93.316406 16.792969 93.621094 16.488281 C 94.230469 16.183594 95.144531 15.878906 95.757812 15.878906 C 96.367188 15.878906 96.671875 15.878906 96.976562 15.878906 C 96.976562 16.183594 96.976562 16.183594 96.976562 16.183594 C 97.28125 16.183594 97.585938 16.488281 97.890625 16.792969 C 97.890625 16.792969 97.890625 17.097656 97.890625 17.097656 C 98.195312 17.40625 98.195312 17.40625 98.195312 17.710938 C 98.195312 18.015625 98.195312 18.320312 98.195312 18.929688 C 98.195312 19.542969 97.890625 20.152344 97.585938 20.761719 C 97.585938 20.761719 97.28125 21.070312 97.28125 21.070312 C 96.976562 21.375 96.671875 21.984375 96.0625 22.289062 C 95.449219 22.902344 94.839844 23.511719 94.535156 23.816406 C 93.925781 24.121094 93.316406 24.425781 92.707031 24.734375 C 92.097656 24.734375 91.792969 24.425781 91.792969 23.816406 L 91.792969 23.511719 L 92.097656 23.511719 C 92.402344 23.207031 92.707031 22.902344 93.011719 22.902344 C 93.621094 22.59375 93.925781 21.984375 94.230469 21.679688 C 94.230469 21.679688 94.230469 21.679688 94.535156 21.375 C 94.535156 21.375 94.535156 21.375 94.535156 21.070312 C 94.839844 20.761719 95.144531 20.152344 95.144531 19.847656 C 95.449219 19.238281 95.144531 19.238281 95.144531 18.929688 C 95.144531 18.625 94.839844 18.625 94.535156 18.625 C 93.621094 18.625 92.707031 19.542969 91.488281 21.070312 C 91.183594 21.375 90.875 21.679688 90.875 21.984375 C 90.570312 22.289062 90.570312 22.289062 90.265625 22.59375 C 89.351562 24.121094 88.132812 25.648438 87.21875 27.175781 C 86.605469 28.398438 85.996094 29.617188 85.386719 30.535156 C 84.777344 31.753906 84.167969 32.976562 83.863281 33.894531 C 83.558594 34.199219 83.558594 34.503906 83.253906 34.808594 C 83.253906 35.113281 82.949219 35.417969 82.949219 35.726562 C 82.339844 37.25 82.03125 38.167969 82.03125 38.777344 C 82.03125 39.082031 81.726562 39.390625 81.117188 39.390625 L 79.289062 39.390625 C 78.679688 39.390625 78.070312 39.390625 77.761719 39.390625 C 77.457031 39.390625 77.152344 39.082031 77.152344 39.082031 L 77.152344 38.777344 C 77.152344 38.777344 77.152344 38.472656 77.152344 38.167969 C 77.457031 37.863281 77.457031 37.558594 77.457031 37.25 L 77.457031 36.945312 L 77.761719 36.640625 C 77.761719 36.03125 78.070312 35.417969 78.070312 34.503906 L 78.375 34.199219 L 78.375 33.585938 C 78.679688 32.976562 78.984375 32.0625 79.289062 31.144531 C 79.59375 29.921875 79.898438 28.703125 80.507812 27.480469 C 80.8125 26.257812 81.117188 25.34375 81.117188 24.734375 C 81.421875 23.816406 81.726562 22.902344 82.03125 22.289062 C 82.03125 21.679688 82.339844 21.375 82.339844 21.070312 C 82.339844 20.761719 82.644531 20.761719 82.644531 20.457031 C 82.644531 19.847656 82.949219 19.542969 82.949219 19.542969 C 82.949219 19.238281 82.949219 18.929688 82.644531 18.929688 C 82.644531 18.625 82.644531 18.625 82.339844 18.625 C 82.339844 18.625 82.03125 18.929688 81.726562 19.238281 C 81.726562 19.238281 81.421875 19.542969 81.421875 19.542969 C 81.421875 19.542969 81.421875 19.542969 81.421875 19.847656 C 81.117188 20.152344 80.8125 20.457031 80.8125 20.761719 L 80.8125 21.070312 L 80.507812 21.070312 C 80.203125 21.070312 80.203125 21.070312 79.898438 20.761719 C 79.898438 20.761719 79.59375 20.761719 79.59375 20.761719 C 79.59375 20.761719 79.289062 20.457031 79.289062 20.457031 Z M 168.945312 29.007812 C 170.46875 28.398438 171.996094 28.089844 173.214844 27.175781 C 173.519531 27.175781 173.519531 27.175781 173.824219 26.871094 C 174.128906 26.871094 174.128906 26.871094 174.433594 26.566406 C 175.347656 26.257812 176.265625 25.648438 176.875 25.039062 C 176.875 24.734375 177.179688 24.734375 177.179688 24.425781 C 177.484375 24.425781 177.484375 24.425781 177.789062 24.121094 C 178.398438 23.511719 179.007812 22.902344 179.3125 22.289062 C 179.617188 21.679688 179.921875 21.375 179.921875 20.761719 C 180.230469 20.457031 180.230469 20.152344 180.230469 19.542969 C 180.535156 18.929688 180.535156 18.625 180.230469 18.320312 C 179.921875 18.015625 179.3125 17.710938 178.703125 17.710938 C 178.398438 17.710938 177.789062 17.710938 177.179688 18.015625 C 176.570312 18.015625 176.265625 18.320312 175.65625 18.625 C 175.042969 19.238281 174.738281 19.542969 174.128906 19.847656 C 173.824219 20.457031 173.214844 21.070312 172.910156 21.375 C 172.605469 21.679688 172.605469 21.679688 172.605469 21.984375 C 172.300781 21.984375 172.300781 22.289062 171.996094 22.59375 C 171.691406 23.207031 171.078125 24.121094 170.46875 25.039062 C 170.164062 25.953125 169.859375 26.566406 169.554688 27.175781 C 169.25 27.785156 169.25 28.398438 168.945312 29.007812 Z M 225.058594 29.007812 C 225.058594 28.703125 225.363281 28.703125 225.363281 28.703125 C 225.667969 28.703125 225.972656 28.703125 225.972656 28.703125 C 227.191406 28.398438 228.410156 27.785156 229.328125 27.175781 C 229.632812 27.175781 229.632812 27.175781 229.9375 26.871094 C 230.242188 26.871094 230.242188 26.871094 230.546875 26.566406 C 231.460938 26.257812 232.375 25.648438 232.984375 25.039062 C 232.984375 24.734375 233.289062 24.734375 233.289062 24.425781 C 233.597656 24.425781 233.597656 24.425781 233.902344 24.121094 C 234.511719 23.511719 234.816406 22.902344 235.425781 22.289062 C 235.730469 21.679688 236.035156 21.375 236.035156 20.761719 C 236.339844 20.457031 236.339844 20.152344 236.339844 19.542969 C 236.644531 18.320312 236.035156 17.710938 234.816406 17.710938 C 234.207031 17.710938 233.902344 17.710938 233.289062 18.015625 C 233.289062 18.015625 233.289062 18.015625 232.984375 18.015625 C 232.679688 18.320312 232.070312 18.320312 231.765625 18.625 C 230.851562 19.542969 229.9375 20.457031 229.023438 21.375 C 228.714844 21.679688 228.714844 21.679688 228.714844 21.984375 C 228.410156 21.984375 228.410156 22.289062 228.105469 22.59375 C 227.800781 23.207031 227.191406 24.121094 226.582031 25.039062 C 225.972656 26.566406 225.363281 27.785156 225.058594 29.007812 Z M 189.683594 0.917969 L 191.511719 0.917969 C 193.648438 0.917969 195.78125 0.609375 197.917969 0 L 198.527344 0.304688 L 188.460938 32.367188 C 188.15625 32.976562 187.851562 33.585938 187.851562 34.199219 C 187.546875 35.113281 187.546875 36.03125 187.851562 36.335938 C 188.15625 36.945312 188.765625 36.945312 189.683594 36.945312 C 190.292969 36.945312 190.902344 36.945312 191.816406 36.640625 C 192.425781 36.335938 193.035156 36.03125 193.648438 35.726562 C 193.953125 35.726562 194.257812 35.417969 194.257812 35.417969 C 194.5625 35.113281 194.5625 35.113281 194.867188 35.113281 C 195.78125 34.199219 196.390625 33.585938 197 32.976562 L 197.304688 32.671875 C 197.609375 32.671875 197.609375 32.671875 197.917969 32.976562 C 197.917969 32.976562 197.917969 32.976562 198.222656 32.976562 C 198.222656 32.976562 198.222656 33.28125 198.527344 33.585938 L 198.222656 33.585938 C 198.222656 33.894531 198.222656 33.894531 198.222656 33.894531 C 197.917969 34.199219 197.917969 34.199219 197.917969 34.199219 C 197.304688 34.808594 197 35.113281 196.390625 35.726562 C 196.085938 35.726562 196.085938 36.03125 195.78125 36.03125 C 195.78125 36.03125 195.78125 36.335938 195.476562 36.335938 C 194.867188 36.945312 194.257812 37.25 193.648438 37.863281 C 193.035156 37.863281 192.425781 38.167969 192.121094 38.472656 C 191.511719 38.777344 190.902344 39.082031 190.292969 39.082031 C 190.292969 39.082031 189.988281 39.390625 189.988281 39.390625 C 188.765625 39.695312 187.546875 39.695312 186.632812 39.695312 C 185.71875 39.695312 185.109375 39.390625 184.5 38.777344 C 183.582031 37.863281 183.277344 36.945312 183.277344 36.03125 C 183.277344 35.113281 183.582031 33.585938 184.191406 31.753906 L 192.730469 4.582031 L 192.730469 4.273438 C 192.730469 4.273438 192.730469 3.96875 192.730469 3.96875 C 192.730469 3.96875 193.035156 3.664062 193.035156 3.664062 C 193.035156 3.054688 192.121094 2.75 190.902344 2.75 L 189.074219 2.75 Z M 207.371094 0.917969 L 209.199219 0.917969 C 211.335938 0.917969 213.773438 0.609375 215.910156 0 L 216.214844 0.304688 L 206.148438 32.367188 C 205.84375 32.976562 205.84375 33.585938 205.539062 34.199219 C 205.539062 35.113281 205.234375 36.03125 205.84375 36.335938 C 206.148438 36.945312 206.453125 36.945312 207.371094 36.945312 C 207.980469 36.945312 208.894531 36.945312 209.503906 36.640625 C 210.113281 36.335938 211.027344 36.03125 211.640625 35.726562 C 211.640625 35.726562 211.945312 35.417969 212.25 35.417969 C 212.25 35.113281 212.554688 35.113281 212.554688 35.113281 C 213.46875 34.199219 214.382812 33.585938 214.992188 32.976562 L 214.992188 32.671875 L 215.296875 32.671875 C 215.296875 32.671875 215.605469 32.671875 215.605469 32.976562 C 215.910156 32.976562 215.910156 32.976562 215.910156 32.976562 C 216.214844 32.976562 216.214844 33.28125 216.214844 33.585938 C 216.214844 33.894531 215.910156 33.894531 215.910156 33.894531 C 215.910156 34.199219 215.605469 34.199219 215.605469 34.199219 C 215.296875 34.808594 214.6875 35.113281 214.078125 35.726562 C 214.078125 35.726562 213.773438 36.03125 213.773438 36.03125 C 213.46875 36.03125 213.46875 36.335938 213.46875 36.335938 C 212.859375 36.945312 211.945312 37.25 211.335938 37.863281 C 211.027344 37.863281 210.417969 38.167969 209.808594 38.472656 C 209.199219 38.777344 208.894531 39.082031 208.285156 39.082031 C 207.980469 39.082031 207.980469 39.390625 207.675781 39.390625 C 206.761719 39.695312 205.539062 39.695312 204.320312 39.695312 C 203.710938 39.695312 202.796875 39.390625 202.183594 38.777344 C 201.574219 37.863281 201.269531 36.945312 201.269531 36.03125 C 201.269531 35.113281 201.574219 33.585938 201.878906 31.753906 L 210.417969 4.582031 L 210.722656 4.273438 C 210.722656 4.273438 210.722656 3.96875 210.722656 3.96875 C 210.722656 3.96875 210.722656 3.664062 210.722656 3.664062 C 210.722656 3.054688 210.113281 2.75 208.589844 2.75 L 206.761719 2.75 Z M 62.515625 37.558594 C 63.429688 37.558594 64.34375 36.945312 65.261719 36.335938 C 66.480469 35.726562 67.394531 34.808594 68.613281 33.585938 C 68.921875 32.976562 69.53125 32.367188 70.140625 31.753906 C 70.445312 30.839844 71.054688 30.230469 71.359375 29.617188 C 71.359375 29.3125 71.664062 29.007812 71.664062 28.703125 C 71.664062 28.703125 71.96875 28.398438 71.96875 28.089844 C 72.578125 27.175781 72.882812 25.953125 73.1875 25.039062 C 72.882812 24.734375 72.578125 24.734375 72.273438 24.425781 C 71.96875 24.121094 71.664062 23.816406 71.359375 23.511719 C 70.75 22.902344 70.445312 21.984375 70.75 21.070312 C 70.75 19.847656 71.359375 19.238281 72.273438 18.929688 C 71.96875 18.625 71.664062 18.320312 71.359375 18.015625 C 71.359375 18.015625 71.054688 18.015625 70.75 17.710938 C 70.445312 17.710938 70.140625 17.710938 69.835938 17.710938 C 69.226562 17.710938 68.613281 17.710938 68.308594 18.015625 C 68.003906 18.015625 68.003906 18.015625 68.003906 18.015625 C 67.394531 18.320312 67.089844 18.625 66.480469 18.929688 C 66.175781 19.238281 66.175781 19.238281 65.871094 19.238281 C 65.871094 19.542969 65.566406 19.542969 65.566406 19.847656 C 64.652344 20.457031 64.039062 21.375 63.429688 22.289062 C 63.125 22.59375 63.125 22.902344 62.820312 22.902344 C 62.820312 23.207031 62.515625 23.511719 62.515625 23.511719 C 61.90625 24.734375 61.296875 25.648438 60.6875 26.871094 C 60.6875 27.175781 60.6875 27.480469 60.382812 27.785156 C 60.382812 27.785156 60.382812 28.089844 60.382812 28.398438 C 59.769531 29.617188 59.464844 30.535156 59.464844 31.753906 C 59.160156 32.367188 59.160156 32.976562 59.160156 33.894531 C 59.160156 34.503906 59.464844 35.113281 59.769531 35.726562 C 59.769531 36.335938 60.078125 36.640625 60.6875 36.945312 C 60.992188 37.25 61.90625 37.558594 62.515625 37.558594 Z M 76.542969 23.207031 C 77.152344 23.207031 77.152344 23.511719 77.152344 24.121094 L 77.152344 24.425781 C 76.542969 24.734375 76.238281 25.039062 75.933594 25.039062 C 75.324219 25.34375 75.019531 25.34375 74.714844 25.34375 C 74.714844 25.648438 74.714844 25.648438 74.714844 25.953125 C 74.410156 25.953125 74.410156 26.257812 74.410156 26.566406 C 74.105469 27.480469 73.496094 28.703125 72.882812 29.921875 C 72.578125 30.839844 72.273438 31.449219 71.664062 32.367188 C 71.054688 32.976562 70.445312 33.894531 69.835938 34.503906 C 69.226562 35.417969 68.613281 36.03125 68.003906 36.640625 C 67.089844 37.25 66.480469 37.863281 65.566406 38.167969 C 65.261719 38.472656 64.957031 38.472656 64.652344 38.777344 C 64.652344 38.777344 64.34375 39.082031 64.039062 39.082031 C 62.820312 39.695312 61.296875 39.695312 60.078125 39.695312 C 59.464844 39.695312 58.855469 39.695312 58.246094 39.695312 C 57.941406 39.695312 57.941406 39.695312 57.636719 39.390625 C 57.332031 39.390625 57.027344 39.390625 56.722656 39.082031 C 56.722656 39.082031 56.722656 38.777344 56.417969 38.777344 C 56.417969 38.777344 56.417969 38.777344 56.113281 38.472656 C 55.808594 38.167969 55.195312 37.558594 54.890625 37.25 C 54.890625 36.945312 54.890625 36.945312 54.585938 36.640625 C 54.585938 36.640625 54.585938 36.640625 54.585938 36.335938 C 54.28125 35.726562 53.976562 35.113281 53.976562 34.503906 C 53.976562 34.503906 53.976562 34.199219 53.976562 34.199219 C 53.976562 33.894531 53.976562 33.894531 53.976562 33.585938 C 53.976562 32.976562 53.976562 32.367188 53.976562 31.753906 C 53.976562 30.839844 54.28125 29.921875 54.585938 29.007812 C 54.585938 29.007812 54.585938 28.703125 54.890625 28.703125 C 55.195312 27.785156 55.5 27.175781 55.808594 26.257812 C 56.113281 25.34375 56.722656 24.425781 57.332031 23.511719 C 57.941406 22.59375 58.550781 21.984375 59.160156 21.070312 C 60.6875 19.542969 62.210938 18.320312 63.734375 17.40625 C 64.652344 16.792969 65.566406 16.488281 66.480469 16.183594 C 67.394531 15.878906 68.308594 15.878906 69.53125 15.878906 C 70.140625 15.878906 70.75 15.878906 71.054688 16.183594 C 71.359375 16.183594 71.359375 16.183594 71.359375 16.183594 C 71.96875 16.183594 72.273438 16.488281 72.578125 16.792969 C 72.578125 16.792969 72.882812 17.097656 72.882812 17.097656 C 72.882812 17.097656 73.1875 17.40625 73.1875 17.40625 C 73.800781 18.015625 74.105469 18.625 74.410156 19.542969 C 74.410156 19.542969 74.410156 19.542969 74.714844 19.847656 C 74.714844 20.152344 75.019531 20.457031 75.019531 20.761719 C 75.019531 21.070312 75.019531 21.679688 75.019531 22.289062 L 75.019531 22.59375 C 75.019531 22.902344 75.019531 23.207031 75.019531 23.511719 C 75.019531 23.511719 75.019531 23.511719 75.019531 23.816406 C 75.324219 23.816406 75.324219 23.816406 75.324219 23.816406 C 75.628906 23.816406 75.933594 23.511719 76.238281 23.207031 Z M 234.816406 32.976562 C 235.121094 32.976562 235.425781 32.976562 235.425781 32.976562 C 235.730469 33.28125 235.730469 33.28125 236.035156 33.585938 L 236.035156 33.894531 L 235.730469 33.894531 C 235.730469 33.894531 235.730469 33.894531 235.730469 34.199219 C 235.425781 34.199219 235.425781 34.199219 235.425781 34.503906 C 234.816406 34.808594 234.511719 35.417969 233.902344 36.03125 C 232.984375 36.640625 232.070312 37.25 231.15625 37.863281 C 230.546875 38.167969 229.9375 38.472656 229.632812 38.777344 C 229.023438 38.777344 228.410156 39.082031 227.800781 39.390625 C 227.496094 39.390625 226.886719 39.695312 226.277344 39.695312 C 225.667969 39.695312 225.058594 39.695312 224.449219 39.695312 C 223.226562 39.695312 222.3125 39.695312 221.703125 39.390625 C 220.789062 38.777344 220.179688 38.167969 219.871094 37.558594 C 219.566406 36.945312 219.566406 36.640625 219.261719 36.335938 C 219.261719 35.726562 218.957031 35.417969 218.957031 34.808594 C 218.957031 33.894531 218.957031 32.671875 219.261719 31.753906 C 219.566406 29.921875 220.179688 27.785156 221.09375 25.953125 C 221.703125 25.039062 222.3125 24.121094 222.921875 23.207031 C 223.53125 22.59375 224.140625 21.679688 224.753906 21.070312 C 225.058594 20.761719 225.363281 20.457031 225.363281 20.152344 C 225.667969 20.152344 225.972656 19.847656 225.972656 19.847656 C 227.191406 18.625 228.410156 18.015625 229.9375 17.097656 C 230.851562 16.792969 231.765625 16.488281 232.679688 16.183594 C 233.597656 15.878906 234.511719 15.878906 235.425781 15.878906 C 236.644531 15.878906 237.867188 16.183594 238.78125 16.792969 C 239.390625 17.097656 239.695312 17.40625 240 18.015625 C 240 18.625 240 19.238281 240 19.847656 C 240 20.457031 239.695312 20.761719 239.390625 21.375 C 239.390625 21.984375 238.78125 22.59375 238.476562 22.902344 C 238.171875 23.511719 237.558594 24.121094 236.949219 24.425781 C 236.644531 25.039062 236.035156 25.648438 235.121094 25.953125 C 235.121094 26.257812 234.816406 26.257812 234.511719 26.566406 C 234.511719 26.566406 234.207031 26.566406 233.902344 26.871094 C 232.984375 27.480469 231.765625 28.089844 230.546875 28.703125 C 228.714844 29.3125 226.886719 29.921875 224.753906 30.535156 C 224.753906 30.535156 224.753906 30.839844 224.753906 30.839844 C 224.449219 31.144531 224.449219 31.144531 224.449219 31.449219 L 224.449219 32.367188 C 224.140625 33.894531 224.140625 35.113281 224.753906 36.03125 C 225.058594 36.640625 225.972656 37.25 226.886719 37.25 C 227.800781 37.25 228.410156 36.945312 229.328125 36.945312 C 229.9375 36.640625 230.546875 36.335938 231.15625 36.03125 C 231.460938 35.726562 231.765625 35.726562 231.765625 35.417969 C 232.070312 35.417969 232.070312 35.417969 232.375 35.113281 C 233.289062 34.503906 233.902344 33.894531 234.511719 32.976562 Z M 178.703125 32.976562 C 179.007812 32.976562 179.007812 32.976562 179.3125 32.976562 C 179.3125 32.976562 179.3125 32.976562 179.617188 33.28125 C 179.617188 33.28125 179.617188 33.28125 179.921875 33.585938 L 179.921875 33.894531 L 179.617188 33.894531 C 179.617188 33.894531 179.617188 33.894531 179.617188 34.199219 C 179.3125 34.199219 179.3125 34.199219 179.3125 34.503906 C 178.703125 34.808594 178.398438 35.417969 177.789062 36.03125 C 177.484375 36.03125 177.484375 36.03125 177.179688 36.335938 C 177.179688 36.335938 177.179688 36.335938 176.875 36.640625 C 176.265625 36.945312 175.65625 37.558594 175.042969 37.863281 C 174.433594 38.167969 173.824219 38.472656 173.519531 38.777344 C 172.910156 38.777344 172.300781 39.082031 171.691406 39.390625 C 171.691406 39.390625 171.386719 39.390625 171.386719 39.390625 C 171.078125 39.390625 171.078125 39.390625 170.773438 39.695312 C 170.164062 39.695312 169.25 39.695312 168.335938 39.695312 C 167.421875 39.695312 166.503906 39.695312 165.589844 39.390625 C 164.675781 38.777344 164.371094 38.167969 163.761719 37.558594 C 162.847656 36.03125 162.542969 33.894531 163.152344 31.753906 L 163.152344 31.449219 C 163.152344 30.535156 163.457031 29.617188 163.761719 28.703125 C 163.761719 28.703125 163.761719 28.703125 163.761719 28.398438 C 164.066406 27.480469 164.675781 26.871094 164.980469 25.953125 C 165.589844 25.039062 166.199219 24.121094 166.8125 23.207031 C 167.421875 22.59375 168.03125 21.679688 168.640625 21.070312 C 169.554688 20.152344 170.164062 19.542969 171.078125 18.929688 C 171.996094 18.320312 172.910156 17.710938 173.824219 17.097656 C 175.65625 16.183594 177.484375 15.878906 179.3125 15.878906 C 180.839844 15.878906 181.753906 16.183594 182.667969 16.792969 C 183.277344 17.097656 183.582031 17.40625 183.886719 18.015625 C 183.886719 18.625 183.886719 19.238281 183.886719 19.847656 C 183.886719 20.457031 183.582031 20.761719 183.277344 21.375 C 183.277344 21.984375 182.667969 22.59375 182.363281 22.902344 C 182.058594 23.511719 181.449219 24.121094 180.839844 24.425781 C 180.535156 25.039062 179.921875 25.648438 179.007812 25.953125 C 179.007812 26.257812 178.703125 26.257812 178.398438 26.566406 C 178.398438 26.566406 178.09375 26.566406 177.789062 26.871094 C 176.875 27.480469 175.65625 28.089844 174.433594 28.703125 C 174.128906 28.703125 173.824219 29.007812 173.519531 29.007812 C 173.519531 29.007812 173.214844 29.3125 172.910156 29.3125 C 171.691406 29.617188 170.164062 30.230469 168.640625 30.535156 C 168.640625 30.535156 168.640625 30.839844 168.640625 30.839844 C 168.640625 31.144531 168.335938 31.144531 168.335938 31.449219 L 168.335938 32.367188 C 168.03125 33.894531 168.03125 35.113281 168.640625 36.03125 C 168.945312 36.640625 169.859375 37.25 171.078125 37.25 C 171.691406 37.25 172.300781 36.945312 173.214844 36.945312 C 173.824219 36.640625 174.433594 36.335938 175.042969 36.03125 C 175.347656 35.726562 175.65625 35.726562 175.65625 35.417969 C 175.960938 35.417969 175.960938 35.417969 176.265625 35.113281 C 177.179688 34.503906 177.789062 33.894531 178.398438 32.976562 Z M 143.328125 0.917969 L 145.160156 0.917969 C 147.292969 0.917969 149.429688 0.609375 151.5625 0 L 152.171875 0.304688 C 150.039062 7.328125 147.902344 14.046875 145.464844 20.761719 C 145.160156 21.375 145.160156 21.679688 144.855469 21.984375 C 144.855469 22.289062 144.550781 22.902344 144.550781 23.207031 C 144.242188 23.511719 144.242188 24.121094 143.9375 24.425781 C 143.9375 24.734375 143.632812 25.039062 143.632812 25.34375 C 143.9375 25.039062 143.9375 24.734375 144.242188 24.121094 C 145.160156 22.902344 146.378906 21.375 147.292969 20.152344 C 147.902344 19.542969 148.511719 18.929688 149.125 18.625 C 149.734375 18.015625 150.34375 17.40625 151.257812 17.097656 C 151.867188 16.792969 152.476562 16.183594 153.394531 16.183594 C 154.003906 15.878906 154.917969 15.878906 155.527344 15.878906 C 156.746094 15.878906 157.660156 15.878906 158.273438 16.183594 C 158.578125 16.183594 158.578125 16.488281 158.882812 16.488281 C 159.492188 16.792969 160.101562 17.097656 160.40625 17.710938 C 160.710938 18.015625 160.710938 18.015625 160.710938 18.320312 C 161.015625 18.320312 161.015625 18.625 161.320312 18.929688 C 161.625 19.847656 161.929688 21.375 161.625 22.902344 C 161.320312 24.734375 160.40625 26.871094 159.1875 29.007812 C 159.1875 29.3125 158.882812 29.3125 158.578125 29.617188 C 158.578125 29.921875 158.273438 30.230469 158.273438 30.535156 C 157.050781 32.0625 156.136719 33.28125 154.917969 34.503906 C 154.613281 34.503906 154.308594 34.808594 154.308594 35.113281 C 154.003906 35.113281 153.699219 35.417969 153.394531 35.726562 C 152.171875 36.640625 150.953125 37.558594 149.429688 38.167969 C 149.125 38.472656 148.816406 38.472656 148.816406 38.777344 C 148.511719 38.777344 148.207031 39.082031 147.902344 39.082031 C 146.378906 39.695312 145.160156 39.695312 143.9375 39.695312 C 143.328125 39.695312 142.414062 39.695312 142.109375 39.695312 C 141.5 39.390625 140.890625 39.390625 140.585938 39.082031 C 139.972656 38.777344 139.667969 38.472656 139.363281 38.167969 C 139.058594 37.863281 138.753906 37.25 138.753906 36.945312 C 138.449219 36.640625 138.144531 36.03125 138.144531 35.726562 C 138.144531 35.113281 138.144531 34.808594 138.144531 34.199219 C 138.144531 33.585938 138.144531 33.28125 138.144531 32.671875 C 138.144531 32.0625 138.144531 31.753906 138.144531 31.144531 C 138.449219 30.535156 138.449219 29.921875 138.449219 29.3125 L 138.753906 29.007812 C 140.585938 20.761719 143.632812 12.824219 146.378906 4.582031 L 146.378906 4.273438 C 146.378906 4.273438 146.378906 3.96875 146.378906 3.96875 C 146.378906 3.96875 146.378906 3.664062 146.378906 3.664062 C 146.378906 3.054688 145.769531 2.75 144.550781 2.75 L 142.71875 2.75 Z M 143.328125 0.917969 "/>
</g>
</svg>
