<?xml version="1.0" encoding="UTF-8" standalone="no"?>
<svg width="42px" height="26px" viewBox="0 0 42 26" version="1.1" xmlns="http://www.w3.org/2000/svg" xmlns:xlink="http://www.w3.org/1999/xlink">
    <!-- Generator: sketchtool 3.8.3 (29802) - http://www.bohemiancoding.com/sketch -->
    <title>EA1B92F6-9893-4DA4-8B4C-E78A5DCB76BA</title>
    <desc>Created with sketchtool.</desc>
    <defs>
        <polyline id="path-1" points="0 0.0116756757 41.988973 0.0116756757 41.988973 25.1254054 0 25.1254054"></polyline>
    </defs>
    <g id="controls" stroke="none" stroke-width="1" fill="none" fill-rule="evenodd">
        <g id="иконки" transform="translate(-709.000000, -1729.000000)">
            <g id="master_card" transform="translate(709.000000, 1729.000000)">
                <g id="Group-4">
                    <mask id="mask-2" fill="white">
                        <use xlink:href="#path-1"></use>
                    </mask>
                    <g id="Clip-2"></g>
                    <path d="M25.0535676,11.244973 C25.0055676,10.793027 24.9337297,10.3472432 24.8404865,9.91491892 L17.1478378,9.91345946 C17.2438378,9.46183784 17.3683784,9.01767568 17.5144865,8.58291892 L24.4770811,8.58356757 C24.3244865,8.12983784 24.1444865,7.68535135 23.9430811,7.25432432 L18.0481622,7.2527027 C18.263027,6.79491892 18.5054595,6.35075676 18.7718919,5.92297297 L23.2195135,5.92135135 C22.9307027,5.45837838 22.6099459,5.01389189 22.2629189,4.59194595 L19.728,4.59324324 C20.1184865,4.1207027 20.5378378,3.67524324 20.9951351,3.26448649 C18.7636216,1.24183784 15.8085405,0.012 12.5597838,0.0116756757 C5.6232973,0.0113513514 0.000648648649,5.6352973 0,12.5748649 C-0.000162162162,19.5111892 5.62362162,25.1338378 12.5599459,25.134 C15.8087027,25.1344865 18.7649189,23.9051351 20.9935135,21.8858919 C21.4474054,21.4746486 21.9158919,21.0295135 22.3036216,20.5534054 L19.7296216,20.5524324 C19.379027,20.1332432 19.0645946,19.6897297 18.7731892,19.223027 L23.2203243,19.2244865 C23.4865946,18.7968649 23.729027,18.3527027 23.9438919,17.8949189 L18.0491351,17.8934595 C17.8444865,17.4617838 17.664,17.0205405 17.5118919,16.5637297 L24.4777297,16.5647027 C24.6205946,16.1296216 24.7446486,15.6883784 24.8412973,15.2336757 C24.935027,14.7982703 25.0068649,14.3562162 25.0538919,13.9044324 C25.0986486,13.4683784 25.1250811,13.0235676 25.1224865,12.5745405 C25.1231351,12.126 25.1004324,11.6807027 25.0535676,11.244973" id="Fill-1" fill="#FF2830" mask="url(#mask-2)"></path>
                    <path d="M20.9935135,21.8858919 C23.2222703,23.9046486 26.1804324,25.1351351 29.4261081,25.1351351 C36.3656757,25.1359459 41.9883243,19.512 41.988973,12.5724324 C41.9891351,5.63594595 36.3658378,0.0102162162 29.4257838,0.0126486486 C26.1802703,0.0126486486 23.2240541,1.24216216 20.9951351,3.26448649 C20.5378378,3.67524324 20.1184865,4.1207027 19.728,4.59324324 L22.2629189,4.59194595 C22.6099459,5.01389189 22.9307027,5.45837838 23.2195135,5.92135135 L18.7718919,5.92297297 C18.5054595,6.35075676 18.263027,6.79491892 18.0481622,7.2527027 L23.9430811,7.25432432 C24.1444865,7.68535135 24.3244865,8.12983784 24.4770811,8.58356757 L17.5144865,8.58291892 C17.3683784,9.01767568 17.2438378,9.46183784 17.1478378,9.91345946 L24.8404865,9.91491892 C24.9337297,10.3472432 25.0055676,10.793027 25.0535676,11.244973 C25.1004324,11.6807027 25.1231351,12.126 25.1224865,12.5745405 C25.1250811,13.0235676 25.0986486,13.4683784 25.0538919,13.9044324 C25.0068649,14.3562162 24.935027,14.7982703 24.8412973,15.2336757 C24.7446486,15.6883784 24.6205946,16.1296216 24.4777297,16.5647027 L17.5118919,16.5637297 C17.664,17.0205405 17.8444865,17.4617838 18.0491351,17.8934595 L23.9438919,17.8949189 C23.729027,18.3527027 23.4865946,18.7968649 23.2203243,19.2244865 L18.7731892,19.223027 C19.0645946,19.6897297 19.379027,20.1332432 19.7296216,20.5524324 L22.3036216,20.5534054 L20.9935135,21.8858919" id="Fill-3" fill="#FC931E" mask="url(#mask-2)"></path>
                </g>
                <path d="M20.4582162,12.3689189 C20.4580541,11.9497297 20.2208108,11.7037297 19.8144324,11.7056757 C19.5034054,11.7045405 19.253027,11.879027 19.0923243,12.2067568 C19.2032432,12.1405946 19.3297297,12.1026486 19.4704865,12.1026486 C19.8274054,12.1037838 20.0558919,12.2962703 20.1034054,12.6337297 L20.4475135,12.6327568 C20.4559459,12.5258919 20.4583784,12.4378378 20.4582162,12.3689189" id="Fill-5" fill="#6F909D"></path>
                <path id="Fill-6" fill="#6F909D"></path>
                <path d="M19.8201081,15.9145946 C18.3004865,15.9144324 17.5078378,15.1221081 17.508,13.6026486 C17.507027,12.8391892 17.6938378,12.1613514 18.0162162,11.6367568 C17.5127027,12.1916757 17.208973,13.0266486 17.2063784,14.0023784 C17.2060541,15.522 18.0869189,16.3169189 19.518,16.3177297 C19.9963784,16.3161081 20.4447568,16.248 20.91,16.1069189 L20.9696757,15.7746486 C20.5895676,15.8688649 20.2127027,15.9175135 19.8201081,15.9145946" id="Fill-7" fill="#6F909D"></path>
                <path d="M27.8187568,10.6996216 C27.2917297,10.6975135 26.8485405,10.962973 26.5396216,11.4141081 C26.8005405,11.2117297 27.1075135,11.1008108 27.4483784,11.0995135 C27.8249189,11.0998378 28.1777838,11.1985946 28.661027,11.4431351 L28.7485946,10.9117297 C28.4028649,10.7617297 28.116973,10.6986486 27.8187568,10.6996216" id="Fill-8" fill="#6F909D"></path>
                <path d="M27.0749189,15.9334054 C25.6107568,15.9343784 24.6972973,14.8825946 24.6984324,13.193027 C24.6989189,11.7421622 25.2136216,10.5698919 26.0523243,9.91459459 C25.6973514,10.1104865 25.4103243,10.3355676 25.1015676,10.668973 L24.9413514,10.6201622 L24.8437297,10.8029189 C24.6638919,11.1739459 24.5278378,11.5840541 24.4232432,12.1195135 C24.3718378,12.1122162 24.3681081,12.114973 24.3256216,12.1156216 C24.0012973,12.1159459 23.8057297,12.2490811 23.6296216,12.780973 C23.7695676,12.6468649 23.9291351,12.606973 24.119027,12.6072973 C24.1553514,12.6058378 24.2828108,12.6074595 24.3510811,12.6105405 C24.3042162,12.9215676 24.2816757,13.2458919 24.282,13.5702162 C24.2909189,15.258 25.2402162,16.3344324 26.7043784,16.3332973 C27.0809189,16.3339459 27.4055676,16.2843243 27.906,16.1482703 L27.9608108,15.8283243 C27.6256216,15.9058378 27.3661622,15.935027 27.0749189,15.9334054" id="Fill-9" fill="#6F909D"></path>
                <path d="M21.7003784,15.8182703 L22.4638378,11.052 L22.1823243,11.0518378 L21.3528649,16.2181622 L22.7117838,16.2188108 C22.7344865,16.0812973 22.7565405,15.9467027 22.7745405,15.8182703 L21.7003784,15.8182703" id="Fill-10" fill="#6F909D"></path>
                <path d="M39.0327568,11.2801622 L39.264,9.86481081 L38.9365946,9.86481081 L38.754973,10.9725405 C38.850973,11.058 38.9412973,11.1622703 39.0327568,11.2801622" id="Fill-11" fill="#6F909D"></path>
                <path d="M38.7097297,12.8592973 C38.7068108,12.2036757 38.4554595,11.8475676 37.9871351,11.8472432 C37.6595676,11.8472432 37.3858378,12.0478378 37.2004865,12.3887027 C37.3315135,12.2957838 37.4789189,12.2477838 37.6427027,12.2476216 C38.1077838,12.2474595 38.3623784,12.6040541 38.3622162,13.259027 C38.3635135,13.7406486 38.2636216,14.1491351 38.0964324,14.4531892 C38.4705405,14.1912973 38.7094054,13.608973 38.7097297,12.8592973" id="Fill-12" fill="#6F909D"></path>
                <path d="M32.8941081,15.8194054 L33.6580541,11.0502162 L33.3758919,11.0532973 L32.5465946,16.2192973 L33.9056757,16.2201081 C33.9287027,16.0793514 33.9502703,15.948 33.9715135,15.8200541 L32.8941081,15.8194054" id="Fill-13" fill="#6F909D"></path>
                <path d="M38.3503784,15.8184324 L38.4147568,15.3132973 C38.0447027,15.7101081 37.6566486,15.8849189 37.1584865,15.8871892 C36.1696216,15.8858919 35.5161081,15.0345405 35.5174054,13.740973 C35.5177297,12.7585946 35.8493514,11.8652432 36.3541622,11.2777297 C36.0543243,11.478 35.8073514,11.7676216 35.6137297,12.1203243 C35.5655676,12.1135135 35.5585946,12.1159459 35.5196757,12.1136757 C35.1591892,12.1156216 34.9592432,12.2807027 34.7683784,12.9645405 C34.9556757,12.7026486 35.1604865,12.6199459 35.3944865,12.6102162 C35.2323243,13.0655676 35.1488108,13.5911351 35.1468649,14.141027 C35.1492973,15.4316757 35.8253514,16.2862703 36.8142162,16.2874054 C37.3123784,16.2851351 37.697027,16.1098378 38.0703243,15.7136757 L38.0028649,16.2183243 L39.2899459,16.2188108 L39.3525405,15.8181081 L38.3503784,15.8184324" id="Fill-14" fill="#6F909D"></path>
                <polyline id="Fill-15" fill="#6F909D" points="1.22837838 15.8190811 2.22356757 9.86708108 1.89972973 9.86432432 0.834972973 16.2191351 2.15448649 16.2207568 2.22097297 15.8176216 1.22837838 15.8190811"></polyline>
                <polyline id="Fill-16" fill="#6F909D" points="4.29940541 13.3973514 5.48562162 9.86627027 5.22697297 9.86594595 4.29145946 12.6591892 4.29940541 13.3973514"></polyline>
                <polyline id="Fill-17" fill="#6F909D" points="5.31875676 15.8197297 6.09891892 10.9347568 5.586 12.3724865 4.97432432 16.2199459 6.33340541 16.2207568 6.39989189 15.8174595 5.31875676 15.8197297"></polyline>
                <polyline id="Fill-18" fill="#6F909D" points="3.43264865 15.8171351 3.31751351 10.9637838 3.00583784 12.8129189 3.08789189 16.2207568 4.01481081 16.2196216 4.15637838 15.8171351 3.43264865 15.8171351"></polyline>
                <path d="M7.89745946,12.2841081 C8.19810811,12.1952432 8.63837838,12.1391351 9.02497297,12.1375135 C9.59789189,12.1392973 9.84535135,12.2429189 9.88913514,12.5142162 C9.98643243,12.5213514 10.0864865,12.5322162 10.1896216,12.5434054 C10.2327568,12.3758919 10.2431351,12.3019459 10.242973,12.2103243 C10.242,11.8662162 10.0078378,11.7384324 9.37216216,11.741027 C8.98264865,11.7385946 8.54578378,11.7951892 8.24189189,11.8837297 L8.05394595,11.9393514 L7.93475676,11.9716216 L8.06935135,11.1291892 C7.97448649,11.1518919 7.87864865,11.1809189 7.77648649,11.2092973 L7.58724324,12.3715135 L7.70967568,12.3395676 L7.89745946,12.2841081" id="Fill-19" fill="#6F909D"></path>
                <path d="M10.0302162,13.5165405 C9.88524324,13.4995135 9.8232973,13.4972432 9.72518919,13.4967568 C9.09,13.4959459 8.71427027,13.6759459 8.60237838,14.0302703 C8.77864865,13.9404324 9.01427027,13.8948649 9.31248649,13.8938919 C9.40410811,13.8937297 9.46572973,13.8992432 9.60048649,13.9180541 C9.59027027,14.2245405 9.54648649,14.4901622 9.45810811,14.7004865 C9.78924324,14.5110811 10.0105946,14.0771351 10.0302162,13.5165405" id="Fill-20" fill="#6F909D"></path>
                <path d="M9.89059459,15.8189189 L9.91686486,15.2823243 C9.57259459,15.7055676 9.11481081,15.9098919 8.48967568,15.9074595 C7.75264865,15.9089189 7.25027027,15.3340541 7.24994595,14.4956757 C7.24848649,14.063027 7.35259459,13.6945946 7.55221622,13.3916757 C7.24037838,13.6295676 7.06183784,13.9452973 6.95821622,14.3336757 L6.89918919,14.7084324 C6.89383784,14.7697297 6.88848649,14.8313514 6.88913514,14.8968649 C6.88994595,15.7321622 7.40821622,16.3091351 8.14540541,16.3078378 C8.76778378,16.3067027 9.22508108,16.1056216 9.52345946,15.6823784 L9.49718919,16.218973 L10.6728649,16.2201081 L10.6861622,16.0778919 L10.7195676,15.8172973 L9.89059459,15.8189189" id="Fill-21" fill="#6F909D"></path>
                <path id="Fill-22" fill="#6F909D"></path>
                <path d="M12.7345946,15.9035676 C12.558,15.9016216 12.3081081,15.8860541 11.9845946,15.8571892 C11.8290811,15.8451892 11.7102162,15.8284865 11.6304324,15.8140541 L11.3826486,15.7597297 L11.322,15.7478919 L11.4308108,15.0428108 C11.333027,15.0158919 11.232,14.9886486 11.1186486,14.9563784 L10.9579459,16.1487568 L11.034973,16.1596216 L11.2829189,16.2139459 C11.3657838,16.2288649 11.4815676,16.2452432 11.6401622,16.2575676 C11.9604324,16.2861081 12.2104865,16.3015135 12.3875676,16.3002162 C13.3667027,16.3000541 13.9821081,16.0456216 14.2765946,15.5104865 C13.9318378,15.7733514 13.4226486,15.9016216 12.7345946,15.9035676" id="Fill-23" fill="#6F909D"></path>
                <path d="M12.8698378,13.7249189 C12.1512973,13.385027 11.8339459,12.9377838 11.8337838,12.2858919 C11.8328108,11.9421081 11.9009189,11.6207027 12.0570811,11.3477838 C11.7658378,11.5788649 11.5975135,11.8926486 11.5281081,12.2463243 C11.5229189,12.3536757 11.5099459,12.4697838 11.4878919,12.6272432 C11.4883784,12.6468649 11.4888649,12.6666486 11.4898378,12.6831892 C11.4896757,13.338 11.8068649,13.7854054 12.5223243,14.1248108 C13.0723784,14.3821622 13.1565405,14.4593514 13.1562162,14.6951351 C13.1586486,14.7021081 13.1576757,14.7084324 13.1568649,14.7147568 C13.3923243,14.6463243 13.5030811,14.5114054 13.5037297,14.2950811 C13.5042162,14.0594595 13.4195676,13.9853514 12.8698378,13.7249189" id="Fill-24" fill="#6F909D"></path>
                <polyline id="Fill-25" fill="#6F909D" points="16.7896216 11.9067568 16.716973 12.3551351 17.2081622 12.3552973 17.274 11.9093514 16.7896216 11.9067568"></polyline>
                <path d="M16.0821081,15.9243243 C15.3848108,15.9214054 15.0082703,15.5247568 15.0068108,14.7877297 C15.0072973,14.6437297 15.0192973,14.4882162 15.0486486,14.3252432 L15.1295676,13.8191351 L15.1931351,13.4121081 L15.7167568,10.2857838 L15.4350811,10.2857838 L14.8456216,13.812 L14.8185405,13.9817838 C14.826,14.045027 14.8266486,14.1107027 14.8268108,14.1796216 C14.8290811,14.514 14.7732973,14.7942162 14.6648108,15.0312973 C14.6607568,15.083027 14.6599459,15.1352432 14.6591351,15.1877838 C14.6610811,15.9214054 15.0405405,16.3217838 15.7344324,16.3242162 C16.0491892,16.3224324 16.338,16.2713514 16.710973,16.1565405 L16.7623784,15.8362703 C16.5212432,15.8975676 16.3081622,15.9231892 16.0821081,15.9243243" id="Fill-26" fill="#6F909D"></path>
                <path d="M29.3194054,12.2821622 C29.6197297,12.1965405 30.0565946,12.1401081 30.4464324,12.1391351 C31.0193514,12.1407568 31.2668108,12.2442162 31.3105946,12.5156757 C31.4046486,12.5223243 31.5084324,12.5302703 31.6110811,12.5447027 C31.6514595,12.3734595 31.6645946,12.3032432 31.6649189,12.2083784 C31.6636216,11.8675135 31.4260541,11.7394054 30.7908649,11.7385946 C30.4042703,11.7400541 29.964,11.7963243 29.6633514,11.885027 L29.4758919,11.9374054 L29.352973,11.9724324 L29.4880541,11.1269189 C29.3959459,11.1533514 29.2973514,11.1786486 29.1947027,11.2101081 L29.0054595,12.3724865 L29.1283784,12.3372973 L29.3194054,12.2821622" id="Fill-27" fill="#6F909D"></path>
                <path d="M31.4484324,13.5175135 C31.3067027,13.5008108 31.242,13.494973 31.1438919,13.4944865 C30.5114595,13.4972432 30.1362162,13.674 30.0210811,14.0278378 C30.197027,13.9412432 30.4358919,13.8961622 30.7339459,13.8955135 C30.8257297,13.8951892 30.8839459,13.9000541 31.0193514,13.9157838 C31.0123784,14.2227568 30.9684324,14.4883784 30.8763243,14.7012973 C31.2111892,14.5092973 31.4320541,14.0785946 31.4484324,13.5175135" id="Fill-28" fill="#6F909D"></path>
                <path d="M31.3094595,15.8166486 L31.3383243,15.2836216 C30.9940541,15.7068649 30.5336757,15.9076216 29.9111351,15.9087568 C29.1745946,15.906973 28.668973,15.3316216 28.6683243,14.4964865 C28.6699459,14.0643243 28.7745405,13.6926486 28.9704324,13.3926486 C28.6477297,13.6388108 28.4302703,13.9751351 28.3331351,14.3871892 C28.3926486,14.3594595 28.4523243,14.3318919 28.5154054,14.3014054 L28.3402703,15.3640541 C28.505027,15.9408649 28.9741622,16.308 29.5668649,16.3091351 C30.1892432,16.308 30.6465405,16.1067568 30.9449189,15.6836757 L30.9188108,16.2202703 L32.0948108,16.2183243 L32.1077838,16.0793514 L32.141027,15.8185946 L31.3094595,15.8166486" id="Fill-29" fill="#6F909D"></path>
                <path d="M17.058973,15.7534054 C16.6855135,15.8712973 16.3967027,15.9225405 16.0821081,15.9243243 C15.3848108,15.9214054 15.0082703,15.5247568 15.0068108,14.7877297 C15.0072973,14.6437297 15.0192973,14.4882162 15.0486486,14.3252432 L15.1295676,13.8191351 L15.1931351,13.4121081 L15.7827568,9.88572973 L17.1353514,9.88556757 L16.9785405,10.6529189 L17.6729189,10.6519459 L17.4835135,11.9091892 L16.7896216,11.9067568 L16.4314054,14.064 C16.4151892,14.1565946 16.4083784,14.2277838 16.4080541,14.2767568 C16.4064324,14.5452973 16.5475135,14.6599459 16.8718378,14.6596216 C17.0255676,14.6614054 17.1455676,14.6455135 17.2386486,14.6125946 L17.058973,15.7534054" id="Fill-30" fill="#FFFFFF"></path>
                <path d="M11.8337838,12.2858919 C11.8339459,12.9377838 12.1512973,13.385027 12.8698378,13.7249189 C13.4195676,13.9853514 13.5042162,14.0594595 13.5037297,14.2950811 C13.5047027,14.6163243 13.2614595,14.7622703 12.7243784,14.7624324 C12.3184865,14.7611351 11.9440541,14.6987027 11.5088108,14.5558378 L11.322,15.7478919 L11.3826486,15.7597297 L11.6304324,15.8140541 C11.7102162,15.8284865 11.8290811,15.8451892 11.9845946,15.8571892 C12.3081081,15.8860541 12.558,15.9016216 12.7345946,15.9035676 C14.1661622,15.9012973 14.8289189,15.3554595 14.8268108,14.1796216 C14.8282703,13.469027 14.5524324,13.0537297 13.8728108,12.738973 C13.3032973,12.479027 13.2361622,12.4204865 13.2374595,12.1782162 C13.2372973,11.8997838 13.4633514,11.7580541 13.9023243,11.7574054 C14.1674595,11.7585405 14.5303784,11.7864324 14.8772432,11.8350811 L15.0713514,10.6375135 C14.7186486,10.5846486 14.1846486,10.5392432 13.8736216,10.5382703 C12.3572432,10.5384324 11.8298919,11.3323784 11.8337838,12.2858919" id="Fill-31" fill="#FFFFFF"></path>
                <path d="M29.2545405,9.66291892 L29.0314054,11.0432432 C28.5483243,10.7985405 28.1952973,10.6999459 27.8187568,10.6996216 C26.8037838,10.698 26.093027,11.6789189 26.0897838,13.0803243 C26.0922162,14.0434054 26.5702703,14.628 27.3595135,14.6273514 C27.6934054,14.6283243 28.062,14.5227568 28.5154054,14.3014054 L28.2765405,15.7482162 C27.7728649,15.8839459 27.4514595,15.9337297 27.0749189,15.9334054 C25.6107568,15.9343784 24.6972973,14.8825946 24.6984324,13.193027 C24.6995676,10.9201622 25.9572973,9.33145946 27.7616757,9.33243243 C27.9942162,9.33227027 28.1974054,9.35416216 28.3681622,9.39778378 L28.9281081,9.53854054 C29.0998378,9.59854054 29.1337297,9.6132973 29.2545405,9.66291892" id="Fill-32" fill="#FFFFFF"></path>
                <path d="M37.6298919,14.6038378 C38.2624865,14.6009189 38.706973,13.8838378 38.7097297,12.8592973 C38.7068108,12.2036757 38.4554595,11.8475676 37.9871351,11.8472432 C37.3715676,11.8461081 36.9330811,12.5674054 36.9316216,13.5823784 C36.9314595,14.2602162 37.1685405,14.6014054 37.6298919,14.6038378 M39.6342162,15.8184324 L38.3503784,15.8184324 L38.4147568,15.3132973 C38.0447027,15.7101081 37.6566486,15.8849189 37.1584865,15.8871892 C36.1696216,15.8858919 35.5161081,15.0345405 35.5174054,13.740973 C35.5162703,12.0214054 36.5284865,10.5718378 37.7302703,10.5732973 C38.2576216,10.572 38.6596216,10.7888108 39.0327568,11.2801622 L39.33,9.46491892 L40.6725405,9.46637838 L39.6342162,15.8184324" id="Fill-33" fill="#FFFFFF"></path>
                <path d="M20.4475135,12.6327568 C20.4559459,12.5258919 20.4583784,12.4378378 20.4582162,12.3689189 C20.4580541,11.9497297 20.2208108,11.7037297 19.8144324,11.7056757 C19.3855135,11.7043784 19.0772432,12.0345405 18.9512432,12.6293514 L20.4475135,12.6327568 M21.2116216,15.707027 C20.7463784,15.8481081 20.2944324,15.918973 19.8201081,15.9145946 C18.3004865,15.9144324 17.5078378,15.1221081 17.508,13.6026486 C17.5081622,11.8274595 18.5129189,10.5241622 19.8820541,10.523027 C21.0021081,10.5228649 21.714973,11.2548649 21.7146486,12.4011892 C21.7169189,12.7812973 21.6684324,13.1511892 21.5485946,13.6780541 L18.8471351,13.6756216 C18.8357838,13.7560541 18.8341622,13.7917297 18.8341622,13.8377838 C18.8320541,14.4366486 19.2377838,14.7426486 20.0271892,14.742 C20.5115676,14.7442703 20.9484324,14.6419459 21.4386486,14.4158919 L21.2116216,15.707027" id="Fill-34" fill="#FFFFFF"></path>
                <path d="M24.8904324,10.6097838 C24.8490811,10.6007027 24.8041622,10.5943784 24.7547027,10.5971351 C24.3092432,10.596973 24.0548108,10.8233514 23.6380541,11.4361622 L23.7580541,10.6506486 L22.5265946,10.6516216 L21.7003784,15.8182703 L23.0594595,15.8189189 C23.5452973,12.6580541 23.6737297,12.1159459 24.3256216,12.1156216 C24.3681081,12.114973 24.3718378,12.1122162 24.4232432,12.1195135 C24.5468108,11.495027 24.7125405,11.0367568 24.9413514,10.6201622 L24.8904324,10.6097838" id="Fill-35" fill="#FFFFFF"></path>
                <path d="M36.0846486,10.6078378 C36.0428108,10.602 35.9978919,10.5956757 35.9487568,10.5953514 C35.5034595,10.595027 35.2485405,10.8244865 34.8322703,11.4343784 L34.9517838,10.6521081 L33.7203243,10.6527568 L32.8941081,15.8194054 L34.2535135,15.816973 C34.739027,12.6591892 34.8679459,12.114 35.5196757,12.1136757 C35.5623243,12.113027 35.5590811,12.1125405 35.6137297,12.1203243 C35.7342162,11.4953514 35.9031892,11.0375676 36.1318378,10.620973 L36.0846486,10.6078378" id="Fill-36" fill="#FFFFFF"></path>
                <polyline id="Fill-37" fill="#FFFFFF" points="6.68140541 15.8174595 5.31875676 15.8197297 6.09891892 10.9347568 4.35908108 15.8192432 3.43264865 15.8171351 3.31751351 10.9637838 2.49924324 15.8171351 1.22837838 15.8190811 2.28956757 9.46702703 4.24475676 9.46621622 4.29940541 13.3973514 5.62037838 9.46572973 7.73254054 9.46735135 6.68140541 15.8174595"></polyline>
                <path d="M11.0171351,15.8198919 L9.89059459,15.8189189 L9.91686486,15.2823243 C9.57259459,15.7055676 9.11481081,15.9098919 8.48967568,15.9074595 C7.75264865,15.9089189 7.25027027,15.3340541 7.24994595,14.4956757 C7.24945946,13.2379459 8.12821622,12.5064324 9.63502703,12.5048108 C9.79232432,12.504 9.98691892,12.5181081 10.1896216,12.5434054 C10.2327568,12.3758919 10.2431351,12.3019459 10.242973,12.2103243 C10.242,11.8662162 10.0078378,11.7384324 9.37216216,11.741027 C8.98264865,11.7385946 8.54578378,11.7951892 8.24189189,11.8837297 L8.05394595,11.9393514 L7.93475676,11.9716216 L8.12075676,10.8089189 C8.79681081,10.6123784 9.24616216,10.5376216 9.74740541,10.5358378 C10.9165946,10.5361622 11.5339459,11.0615676 11.5326486,12.0504324 C11.532973,12.306 11.5123784,12.4996216 11.4215676,13.0764324 L11.1387568,14.9067568 L11.0557297,15.4976757 L11.0338378,15.678 L11.0171351,15.8198919 M10.0302162,13.5165405 C9.88524324,13.4995135 9.8232973,13.4972432 9.72518919,13.4967568 C8.95556757,13.4967568 8.56491892,13.7596216 8.56394595,14.2803243 C8.56427027,14.6046486 8.75513514,14.8083243 9.04962162,14.8102703 C9.60648649,14.8096216 10.0045946,14.2825946 10.0302162,13.5165405" id="Fill-38" fill="#FFFFFF"></path>
                <path d="M32.4520541,15.678973 L32.4773514,15.4991351 L32.5110811,15.2352973 L32.5602162,14.9080541 L32.8435135,13.0744865 C32.9338378,12.5010811 32.9544324,12.3072973 32.9542703,12.0520541 C32.9526486,11.0592973 32.3348108,10.5371351 31.1656216,10.5368108 C30.6648649,10.5353514 30.2187568,10.6104324 29.5422162,10.8103784 L29.352973,11.9724324 L29.4758919,11.9374054 L29.6633514,11.885027 C29.964,11.7963243 30.4042703,11.7400541 30.7908649,11.7385946 C31.4260541,11.7394054 31.6636216,11.8675135 31.6649189,12.2083784 C31.6645946,12.3032432 31.6514595,12.3734595 31.6110811,12.5447027 C31.4083784,12.5195676 31.2105405,12.5048108 31.0564865,12.5061081 C29.5470811,12.504 28.6710811,13.2392432 28.6683243,14.4964865 C28.668973,15.3316216 29.1745946,15.906973 29.9111351,15.9087568 C30.5336757,15.9076216 30.9940541,15.7068649 31.3383243,15.2836216 L31.3094595,15.8166486 L32.4390811,15.8179459 L32.4520541,15.678973 M30.4715676,14.8083243 C30.1735135,14.8091351 29.9831351,14.6023784 29.9854054,14.2816216 C29.9832973,13.7605946 30.3742703,13.4944865 31.1438919,13.4944865 C31.242,13.494973 31.3067027,13.5008108 31.4484324,13.5175135 C31.4234595,14.2803243 31.0251892,14.8073514 30.4715676,14.8083243" id="Fill-39" fill="#FFFFFF"></path>
            </g>
        </g>
    </g>
</svg>